<svg xmlns="http://www.w3.org/2000/svg" viewBox="0 0 760 360" font-family="ui-monospace, SFMono-Regular, Menlo, Consolas, monospace">
  <defs>
    <marker id="arrow1" viewBox="0 0 10 10" refX="9" refY="5" markerWidth="7" markerHeight="7" orient="auto-start-reverse">
      <path d="M0,0L10,5L0,10z" fill="#333"/>
    </marker>
    <pattern id="rack1" x="340" y="107" width="150" height="20" patternUnits="userSpaceOnUse">
      <rect width="150" height="20" fill="#1b1b1b"/>
      <rect x="6" y="3" width="138" height="14" rx="2" fill="#2e2e2e" stroke="#444" stroke-width="0.5"/>
      <circle cx="16" cy="10" r="2" fill="#2ecc71"/>
      <circle cx="26" cy="10" r="2" fill="#e8b923"/>
      <line x1="98" y1="6" x2="98" y2="14" stroke="#555" stroke-width="1"/>
      <line x1="105" y1="6" x2="105" y2="14" stroke="#555" stroke-width="1"/>
      <line x1="112" y1="6" x2="112" y2="14" stroke="#555" stroke-width="1"/>
      <line x1="119" y1="6" x2="119" y2="14" stroke="#555" stroke-width="1"/>
      <line x1="126" y1="6" x2="126" y2="14" stroke="#555" stroke-width="1"/>
      <line x1="133" y1="6" x2="133" y2="14" stroke="#555" stroke-width="1"/>
    </pattern>
  </defs>
  <rect width="760" height="360" fill="#ffffff"/>

  <text x="115" y="22" text-anchor="middle" font-size="14" fill="#555">input</text>
  <rect x="20" y="32" width="200" height="300" rx="8" fill="#f5f5f5" stroke="#333" stroke-width="1.5"/>
  <text x="34" y="52" font-size="12" fill="#111">100101101011</text>
  <text x="34" y="67" font-size="12" fill="#111">011010010111</text>
  <text x="34" y="82" font-size="12" fill="#111">111000101101</text>
  <text x="34" y="97" font-size="12" fill="#111">010110100101</text>
  <text x="34" y="112" font-size="12" fill="#111">100111010011</text>
  <text x="34" y="127" font-size="12" fill="#111">011001011101</text>
  <text x="34" y="142" font-size="12" fill="#111">001011010110</text>
  <text x="34" y="157" font-size="12" fill="#111">110100101011</text>
  <text x="34" y="172" font-size="12" fill="#111">010011101100</text>
  <text x="34" y="187" font-size="12" fill="#111">101110010011</text>
  <text x="34" y="202" font-size="12" fill="#111">011001101010</text>
  <text x="34" y="217" font-size="12" fill="#111">100110101101</text>
  <text x="34" y="232" font-size="12" fill="#111">001101011010</text>
  <text x="34" y="247" font-size="12" fill="#111">110010110101</text>
  <text x="34" y="262" font-size="12" fill="#111">010101100110</text>
  <text x="34" y="277" font-size="12" fill="#111">101010011011</text>
  <text x="34" y="292" font-size="12" fill="#111">011011010010</text>
  <text x="34" y="307" font-size="12" fill="#111">100100110101</text>

  <line x1="20" y1="130" x2="220" y2="130" stroke="#333" stroke-width="2"/>
  <line x1="20" y1="220" x2="220" y2="220" stroke="#333" stroke-width="2"/>

  <text x="150" y="90" text-anchor="middle" font-size="14" fill="#555">Package source</text>
  <text x="160" y="180" text-anchor="middle" font-size="14" fill="#555">Build system</text>
  <text x="170" y="270" text-anchor="middle" font-size="14" fill="#555">Build env</text>

  <line x1="222" y1="182" x2="305" y2="182" stroke="#333" stroke-width="2" marker-end="url(#arrow1)"/>

  <text x="385" y="97" text-anchor="middle" font-size="14" fill="#555">computer</text>
  <rect x="310" y="107" width="150" height="150" rx="14" fill="url(#rack1)" stroke="#111" stroke-width="2.5"/>

  <line x1="462" y1="182" x2="545" y2="182" stroke="#333" stroke-width="2" marker-end="url(#arrow1)"/>

  <text x="645" y="22" text-anchor="middle" font-size="14" fill="#555">output</text>
  <rect x="550" y="32" width="190" height="300" rx="8" fill="#f5f5f5" stroke="#333" stroke-width="1.5"/>
  <text x="564" y="52" font-size="12" fill="#111">001110100110</text>
  <text x="564" y="67" font-size="12" fill="#111">110001011001</text>
  <text x="564" y="82" font-size="12" fill="#111">010111001011</text>
  <text x="564" y="97" font-size="12" fill="#111">101000110101</text>
  <text x="564" y="112" font-size="12" fill="#111">011100101011</text>
  <text x="564" y="127" font-size="12" fill="#111">100101110010</text>
  <text x="564" y="142" font-size="12" fill="#111">001100111010</text>
  <text x="564" y="157" font-size="12" fill="#111">110011000101</text>
  <text x="564" y="172" font-size="12" fill="#111">010100111001</text>
  <text x="564" y="187" font-size="12" fill="#111">101011000110</text>
  <text x="564" y="202" font-size="12" fill="#111">011110001001</text>
  <text x="564" y="217" font-size="12" fill="#111">100001110110</text>
  <text x="564" y="232" font-size="12" fill="#111">001010111100</text>
  <text x="564" y="247" font-size="12" fill="#111">110101000011</text>
  <text x="564" y="262" font-size="12" fill="#111">010011100011</text>
  <text x="564" y="277" font-size="12" fill="#111">101100011100</text>
  <text x="564" y="292" font-size="12" fill="#111">011001110001</text>
  <text x="564" y="307" font-size="12" fill="#111">100110001110</text>

  <text x="700" y="180" text-anchor="middle" font-size="14" fill="#555">Package</text>
</svg>
